<svg width="16" height="16" viewBox="0 0 16 16" fill="none" xmlns="http://www.w3.org/2000/svg">
<path d="M7.82631 0.361897C6.25663 0.938397 4.63288 2.12009 3.13126 3.77935C1.62964 5.4386 0.615358 7.17186 0.197891 8.79111C-0.219576 10.4104 0.0309052 11.7632 0.877269 12.5292L3.54649 14.9448C4.39285 15.7108 5.77293 15.821 7.3336 15.2489C8.89426 14.6768 10.527 13.4907 12.0286 11.8315C13.5303 10.1722 14.5445 8.43894 14.962 6.81969C15.3795 5.20044 15.129 3.84758 14.2826 3.08163L11.6134 0.665993C10.7671 -0.099964 9.38698 -0.210234 7.82631 0.361897ZM8.9671 9.83146L10.7466 11.4419C9.80144 12.4169 8.87887 13.1234 8.02946 13.6071L6.28891 12.0319C7.27222 11.412 8.17171 10.6737 8.96821 9.83246L8.9671 9.83146ZM9.73397 8.98409C10.4917 8.10784 11.137 7.13935 11.6559 6.09926L13.397 7.67496C13.0002 8.56827 12.3891 9.55655 11.5129 10.594L9.73397 8.98409ZM4.31335 14.0974L3.28626 13.1679C3.75994 13.1115 4.22252 12.9992 4.66438 12.8333C4.84813 12.7655 5.03471 12.6867 5.21842 12.6044L6.90948 14.1349C5.71479 14.5787 4.77435 14.5146 4.31335 14.0974ZM13.8113 6.50852L12.1202 4.97812C12.1853 4.78554 12.2436 4.59365 12.2928 4.40406C12.4139 3.94788 12.4797 3.47642 12.4887 2.99948L13.5158 3.929C13.9768 4.3462 14.134 5.2756 13.8113 6.50852Z" fill="#FF870F"/>
</svg>
