<svg width="281" height="308" viewBox="0 0 281 308" fill="none" xmlns="http://www.w3.org/2000/svg">
<mask id="path-1-outside-1_601_4" maskUnits="userSpaceOnUse" x="-0.000488281" y="0" width="281" height="308" fill="black">
<rect fill="white" x="-0.000488281" width="281" height="308"/>
<path d="M143.228 1.07812C171.303 2.52285 194.787 26.0082 194.787 54.915L194.724 57.0742C194.662 58.2391 194.476 59.435 194.305 60.6465C195.856 59.4142 197.439 58.3218 199.052 57.3691L201.487 56.0488C226.909 43.0788 258.63 52.8956 272.807 77.4844L274.11 79.9072C286.503 104.185 278.856 135.019 255.698 150.086L253.34 151.53C251.686 152.441 249.944 153.265 248.114 154C249.954 154.714 251.696 155.538 253.34 156.47L255.698 157.914C278.856 172.981 286.503 203.83 274.11 228.093L272.807 230.5C258.63 255.104 226.894 264.921 201.487 251.951L199.037 250.615C197.393 249.616 195.813 248.517 194.305 247.322C194.605 249.29 194.766 251.216 194.787 253.101L194.708 255.865C193.235 284.399 168.883 307 140.498 307C112.112 307 87.7757 284.399 86.2866 255.865L86.2095 253.101C86.2198 251.216 86.3744 249.29 86.6743 247.322C85.7334 248.099 84.7719 248.824 83.7896 249.497L81.9595 250.615C56.9557 265.061 24.8941 256.471 9.61572 232.83L8.18896 230.5C-6.45343 205.119 1.87566 171.381 27.6704 156.47L29.563 155.429C30.6177 154.911 31.7242 154.435 32.8823 154C31.7576 153.562 30.6503 153.08 29.563 152.556L27.6704 151.53C1.87565 136.619 -6.45343 102.896 8.18896 77.5L9.61572 75.1699C24.8941 51.5288 56.9712 42.9235 81.9595 57.3691L83.7896 58.5029C84.7718 59.176 85.7334 59.8906 86.6743 60.6465C86.4009 58.7423 86.246 56.8229 86.2095 54.8994C86.2095 25.0762 111.213 1.00014 140.498 1L143.228 1.07812ZM141 140C133.268 140 127 146.268 127 154C127 161.732 133.268 168 141 168C148.731 168 155 161.732 155 154C155 146.268 148.731 140 141 140Z"/>
</mask>
<path d="M143.228 1.07812C171.303 2.52285 194.787 26.0082 194.787 54.915L194.724 57.0742C194.662 58.2391 194.476 59.435 194.305 60.6465C195.856 59.4142 197.439 58.3218 199.052 57.3691L201.487 56.0488C226.909 43.0788 258.63 52.8956 272.807 77.4844L274.11 79.9072C286.503 104.185 278.856 135.019 255.698 150.086L253.34 151.53C251.686 152.441 249.944 153.265 248.114 154C249.954 154.714 251.696 155.538 253.34 156.47L255.698 157.914C278.856 172.981 286.503 203.83 274.11 228.093L272.807 230.5C258.63 255.104 226.894 264.921 201.487 251.951L199.037 250.615C197.393 249.616 195.813 248.517 194.305 247.322C194.605 249.29 194.766 251.216 194.787 253.101L194.708 255.865C193.235 284.399 168.883 307 140.498 307C112.112 307 87.7757 284.399 86.2866 255.865L86.2095 253.101C86.2198 251.216 86.3744 249.29 86.6743 247.322C85.7334 248.099 84.7719 248.824 83.7896 249.497L81.9595 250.615C56.9557 265.061 24.8941 256.471 9.61572 232.83L8.18896 230.5C-6.45343 205.119 1.87566 171.381 27.6704 156.47L29.563 155.429C30.6177 154.911 31.7242 154.435 32.8823 154C31.7576 153.562 30.6503 153.08 29.563 152.556L27.6704 151.53C1.87565 136.619 -6.45343 102.896 8.18896 77.5L9.61572 75.1699C24.8941 51.5288 56.9712 42.9235 81.9595 57.3691L83.7896 58.5029C84.7718 59.176 85.7334 59.8906 86.6743 60.6465C86.4009 58.7423 86.246 56.8229 86.2095 54.8994C86.2095 25.0762 111.213 1.00014 140.498 1L143.228 1.07812ZM141 140C133.268 140 127 146.268 127 154C127 161.732 133.268 168 141 168C148.731 168 155 161.732 155 154C155 146.268 148.731 140 141 140Z" fill="#FF4C94" fill-opacity="0.07"/>
<path d="M143.228 1.07812L143.279 0.0794464L143.268 0.0788603L143.257 0.0785341L143.228 1.07812ZM194.787 54.915L195.786 54.944L195.787 54.9295V54.915H194.787ZM194.724 57.0742L195.723 57.1274L195.723 57.1153L195.724 57.1032L194.724 57.0742ZM194.305 60.6465L193.315 60.507L192.966 62.9879L194.927 61.4295L194.305 60.6465ZM199.052 57.3691L198.576 56.4901L198.559 56.4988L198.544 56.5081L199.052 57.3691ZM201.487 56.0488L201.032 55.1581L201.021 55.1638L201.01 55.1698L201.487 56.0488ZM272.807 77.4844L273.688 77.0108L273.681 76.9977L273.673 76.9849L272.807 77.4844ZM274.11 79.9072L275.001 79.4526L274.996 79.4431L274.991 79.4337L274.11 79.9072ZM255.698 150.086L256.22 150.939L256.232 150.932L256.243 150.924L255.698 150.086ZM253.34 151.53L253.823 152.406L253.843 152.395L253.863 152.383L253.34 151.53ZM248.114 154L247.741 153.072L245.391 154.016L247.752 154.932L248.114 154ZM253.34 156.47L253.863 155.617L253.848 155.608L253.833 155.6L253.34 156.47ZM255.698 157.914L256.243 157.076L256.232 157.068L256.22 157.061L255.698 157.914ZM274.11 228.093L274.989 228.569L274.995 228.558L275 228.548L274.11 228.093ZM272.807 230.5L273.674 230.999L273.68 230.988L273.687 230.976L272.807 230.5ZM201.487 251.951L201.008 252.829L201.02 252.836L201.032 252.842L201.487 251.951ZM199.037 250.615L198.517 251.47L198.537 251.482L198.558 251.493L199.037 250.615ZM194.305 247.322L194.926 246.538L192.934 244.96L193.317 247.473L194.305 247.322ZM194.787 253.101L195.786 253.129L195.787 253.109L195.787 253.09L194.787 253.101ZM194.708 255.865L195.707 255.917L195.708 255.905L195.708 255.893L194.708 255.865ZM140.498 307V308V308V307ZM86.2866 255.865L85.287 255.893L85.2873 255.905L85.288 255.917L86.2866 255.865ZM86.2095 253.101L85.2095 253.095L85.2094 253.112L85.2099 253.128L86.2095 253.101ZM86.6743 247.322L87.6629 247.473L88.0575 244.884L86.0378 246.551L86.6743 247.322ZM83.7896 249.497L84.3109 250.35L84.3332 250.337L84.3548 250.322L83.7896 249.497ZM81.9595 250.615L82.4597 251.481L82.4704 251.475L82.4809 251.469L81.9595 250.615ZM9.61572 232.83L8.7629 233.352L8.76925 233.363L8.77585 233.373L9.61572 232.83ZM8.18896 230.5L7.32277 231L7.32931 231.011L7.33614 231.022L8.18896 230.5ZM27.6704 156.47L27.1885 155.594L27.1791 155.599L27.1699 155.604L27.6704 156.47ZM29.563 155.429L29.1223 154.531L29.1014 154.541L29.081 154.553L29.563 155.429ZM32.8823 154L33.2339 154.936L35.681 154.017L33.2454 153.068L32.8823 154ZM29.563 152.556L29.0866 153.435L29.1073 153.446L29.1286 153.456L29.563 152.556ZM27.6704 151.53L27.1699 152.396L27.1819 152.403L27.194 152.41L27.6704 151.53ZM8.18896 77.5L7.33614 76.9778L7.32924 76.9891L7.32264 77.0005L8.18896 77.5ZM9.61572 75.1699L8.77585 74.6271L8.76925 74.6374L8.7629 74.6477L9.61572 75.1699ZM81.9595 57.3691L82.4861 56.5191L82.4732 56.511L82.46 56.5034L81.9595 57.3691ZM83.7896 58.5029L84.3548 57.678L84.3358 57.665L84.3162 57.6528L83.7896 58.5029ZM86.6743 60.6465L86.048 61.4261L88.0245 63.0138L87.6642 60.5044L86.6743 60.6465ZM86.2095 54.8994H85.2095V54.9089L85.2097 54.9184L86.2095 54.8994ZM140.498 1L140.526 0.000409067L140.512 -1.19209e-07L140.498 0V1ZM143.228 1.07812L143.177 2.0768C170.74 3.49519 193.787 26.5602 193.787 54.915H194.787H195.787C195.787 25.4563 171.866 1.55051 143.279 0.0794464L143.228 1.07812ZM194.787 54.915L193.787 54.8861L193.725 57.0453L194.724 57.0742L195.724 57.1032L195.786 54.944L194.787 54.915ZM194.724 57.0742L193.726 57.021C193.666 58.131 193.489 59.2715 193.315 60.507L194.305 60.6465L195.295 60.7859C195.463 59.5985 195.658 58.3472 195.723 57.1274L194.724 57.0742ZM194.305 60.6465L194.927 61.4295C196.444 60.2243 197.989 59.1583 199.561 58.2302L199.052 57.3691L198.544 56.5081C196.889 57.4854 195.268 58.6041 193.683 59.8635L194.305 60.6465ZM199.052 57.3691L199.529 58.2482L201.964 56.9279L201.487 56.0488L201.01 55.1698L198.576 56.4901L199.052 57.3691ZM201.487 56.0488L201.941 56.9396C226.879 44.2169 258.024 53.846 271.941 77.9839L272.807 77.4844L273.673 76.9849C259.236 51.9453 226.94 41.9407 201.032 55.1581L201.487 56.0488ZM272.807 77.4844L271.926 77.9579L273.229 80.3808L274.11 79.9072L274.991 79.4337L273.688 77.0108L272.807 77.4844ZM274.11 79.9072L273.219 80.3619C285.387 104.198 277.869 134.468 255.152 149.248L255.698 150.086L256.243 150.924C279.843 135.57 287.62 104.173 275.001 79.4526L274.11 79.9072ZM255.698 150.086L255.175 149.233L252.818 150.678L253.34 151.53L253.863 152.383L256.22 150.939L255.698 150.086ZM253.34 151.53L252.858 150.654C251.24 151.545 249.535 152.351 247.741 153.072L248.114 154L248.487 154.928C250.353 154.178 252.132 153.338 253.823 152.406L253.34 151.53ZM248.114 154L247.752 154.932C249.549 155.63 251.247 156.433 252.847 157.34L253.34 156.47L253.833 155.6C252.146 154.643 250.359 153.799 248.476 153.068L248.114 154ZM253.34 156.47L252.818 157.322L255.175 158.767L255.698 157.914L256.22 157.061L253.863 155.617L253.34 156.47ZM255.698 157.914L255.152 158.752C277.869 173.532 285.387 203.818 273.219 227.638L274.11 228.093L275 228.548C287.62 203.843 279.843 172.43 256.243 157.076L255.698 157.914ZM274.11 228.093L273.23 227.617L271.928 230.024L272.807 230.5L273.687 230.976L274.989 228.569L274.11 228.093ZM272.807 230.5L271.941 230.001C258.023 254.154 226.864 263.783 201.941 251.061L201.487 251.951L201.032 252.842C226.924 266.059 259.237 256.054 273.674 230.999L272.807 230.5ZM201.487 251.951L201.966 251.073L199.515 249.737L199.037 250.615L198.558 251.493L201.008 252.829L201.487 251.951ZM199.037 250.615L199.556 249.761C197.948 248.783 196.401 247.707 194.926 246.538L194.305 247.322L193.684 248.106C195.224 249.326 196.839 250.45 198.517 251.47L199.037 250.615ZM194.305 247.322L193.317 247.473C193.61 249.397 193.767 251.276 193.787 253.112L194.787 253.101L195.787 253.09C195.765 251.155 195.6 249.183 195.294 247.172L194.305 247.322ZM194.787 253.101L193.787 253.072L193.709 255.837L194.708 255.865L195.708 255.893L195.786 253.129L194.787 253.101ZM194.708 255.865L193.71 255.814C192.264 283.805 168.361 306 140.498 306V307V308C169.404 308 194.206 284.993 195.707 255.917L194.708 255.865ZM140.498 307V306C112.634 306 88.7461 283.806 87.2853 255.813L86.2866 255.865L85.288 255.917C86.8053 284.993 111.591 308 140.498 308V307ZM86.2866 255.865L87.2862 255.837L87.2091 253.073L86.2095 253.101L85.2099 253.128L85.287 255.893L86.2866 255.865ZM86.2095 253.101L87.2095 253.106C87.2195 251.272 87.37 249.395 87.6629 247.473L86.6743 247.322L85.6857 247.172C85.3789 249.185 85.2201 251.159 85.2095 253.095L86.2095 253.101ZM86.6743 247.322L86.0378 246.551C85.1191 247.309 84.1813 248.016 83.2243 248.672L83.7896 249.497L84.3548 250.322C85.3624 249.632 86.3476 248.888 87.3109 248.094L86.6743 247.322ZM83.7896 249.497L83.2682 248.644L81.4381 249.762L81.9595 250.615L82.4809 251.469L84.3109 250.35L83.7896 249.497ZM81.9595 250.615L81.4592 249.749C56.9341 263.918 25.4556 255.498 10.4556 232.287L9.61572 232.83L8.77585 233.373C24.3326 257.445 56.9773 266.203 82.4597 251.481L81.9595 250.615ZM9.61572 232.83L10.4685 232.308L9.04179 229.978L8.18896 230.5L7.33614 231.022L8.7629 233.352L9.61572 232.83ZM8.18896 230.5L9.05516 230C-5.32007 205.083 2.86882 171.962 28.1709 157.335L27.6704 156.47L27.1699 155.604C0.882493 170.801 -7.58678 205.156 7.32277 231L8.18896 230.5ZM27.6704 156.47L28.1524 157.346L30.0449 156.305L29.563 155.429L29.081 154.553L27.1885 155.594L27.6704 156.47ZM29.563 155.429L30.0036 156.326C31.0277 155.824 32.1044 155.36 33.2339 154.936L32.8823 154L32.5308 153.064C31.3441 153.509 30.2077 153.998 29.1223 154.531L29.563 155.429ZM32.8823 154L33.2454 153.068C32.1448 152.639 31.0612 152.168 29.9974 151.655L29.563 152.556L29.1286 153.456C30.2393 153.992 31.3705 154.484 32.5193 154.932L32.8823 154ZM29.563 152.556L30.0394 151.676L28.1468 150.651L27.6704 151.53L27.194 152.41L29.0866 153.435L29.563 152.556ZM27.6704 151.53L28.1709 150.665C2.86888 136.038 -5.32021 102.933 9.05529 77.9995L8.18896 77.5L7.32264 77.0005C-7.58665 102.86 0.882419 137.199 27.1699 152.396L27.6704 151.53ZM8.18896 77.5L9.04179 78.0222L10.4685 75.6921L9.61572 75.1699L8.7629 74.6477L7.33614 76.9778L8.18896 77.5ZM9.61572 75.1699L10.4556 75.7127C25.456 52.5017 56.95 44.0663 81.459 58.2349L81.9595 57.3691L82.46 56.5034C56.9925 41.7807 24.3323 50.5558 8.77585 74.6271L9.61572 75.1699ZM81.9595 57.3691L81.4328 58.2192L83.2629 59.353L83.7896 58.5029L84.3162 57.6528L82.4861 56.5191L81.9595 57.3691ZM83.7896 58.5029L83.2243 59.3279C84.1853 59.9863 85.1265 60.6858 86.048 61.4261L86.6743 60.6465L87.3006 59.8669C86.3402 59.0954 85.3583 58.3656 84.3548 57.678L83.7896 58.5029ZM86.6743 60.6465L87.6642 60.5044C87.3966 58.6411 87.245 56.7628 87.2093 54.8804L86.2095 54.8994L85.2097 54.9184C85.2469 56.8829 85.4052 58.8434 85.6845 60.7886L86.6743 60.6465ZM86.2095 54.8994H87.2095C87.2095 25.6442 111.749 2.00014 140.498 2V1V0C110.676 0.000145257 85.2095 24.5082 85.2095 54.8994H86.2095ZM140.498 1L140.469 1.99959L143.199 2.07772L143.228 1.07812L143.257 0.0785341L140.526 0.000409067L140.498 1ZM141 140V139C132.715 139 126 145.716 126 154H127H128C128 146.82 133.82 141 141 141V140ZM127 154H126C126 162.284 132.715 169 141 169V168V167C133.82 167 128 161.18 128 154H127ZM141 168V169C149.284 169 156 162.284 156 154H155H154C154 161.18 148.179 167 141 167V168ZM155 154H156C156 145.716 149.284 139 141 139V140V141C148.179 141 154 146.82 154 154H155Z" fill="white" mask="url(#path-1-outside-1_601_4)"/>
</svg>
