<svg width="1883" height="860" viewBox="0 0 1883 860" fill="none" xmlns="http://www.w3.org/2000/svg">
<path d="M690.9 87.7495C718.29 14.263 780.053 0.863325 824.474 1.99902C940.921 6.79064 949.102 140.555 949.102 214.428C949.102 351.545 830.215 428.985 702.508 428.985C628.611 428.985 542.868 403.239 495.702 342.553C427.818 255.534 411.061 25.5573 557.641 11.0498C665.226 0.401804 690.9 87.7495 690.9 87.7495Z" fill="#FF4C94" fill-opacity="0.07"/>
<path d="M332.335 650.582V699.862C332.335 740.679 323.281 775.996 305.173 805.81C284.579 839.529 257.239 856.388 223.153 856.388C189.421 856.388 162.614 839.884 142.73 806.875C114.203 758.916 118.097 705.128 103.534 673.932C88.9709 642.737 53.0759 629.407 33.5473 612.016C12.2433 592.849 1.59131 569.778 1.59131 542.803C1.59131 400.011 423.41 384.788 423.41 543.336C423.41 598.46 380.184 630.706 332.335 650.582Z" fill="#FF4C94" fill-opacity="0.07"/>
<path d="M1326.21 487.499C1347.52 507.021 1376.55 569.34 1318.3 621.332C1329.98 629.144 1340.07 639.371 1348.58 652.012C1361.01 670.113 1367.22 689.99 1367.22 711.641C1367.22 749.619 1351.24 782.273 1319.29 809.603C1283.43 840.127 1235.49 855.389 1175.49 855.389C1155.96 855.389 1135.9 853.615 1115.3 850.065C1078.69 843.002 1033.05 831.51 1004.38 806.425C975.75 786.226 962.753 737.154 982.531 706.599C993.973 688.922 1009.44 679.275 1009.44 679.275C991.582 670.131 978.245 655.913 968.305 636.04C959.783 619.003 955.522 602.676 955.522 587.059C955.522 541.272 975.051 503.117 1014.11 472.592C1050.68 444.197 1094.18 430 1144.6 430C1161.99 430 1184.01 432.13 1210.64 436.389C1237.27 440.648 1258.75 446.505 1275.08 453.958C1294.26 462.832 1311.3 474.012 1326.21 487.499Z" fill="#FF4C94" fill-opacity="0.07"/>
<path d="M1617.83 364.631C1611.08 377.408 1602.56 388.411 1592.27 397.639C1584.45 404.738 1577 410.24 1569.9 414.144C1557.47 420.533 1543.62 423.727 1528.35 423.727C1491.43 423.727 1462.84 404.738 1442.6 366.76C1420.95 326.298 1410.12 271.283 1410.12 201.715C1410.12 149.895 1417.93 106.77 1433.55 72.3418C1453.08 29.0397 1482.55 7.38873 1521.96 7.38873C1542.91 7.38873 1564.93 16.0846 1588 33.4764C1605.05 46.6412 1620.23 73.3888 1627.48 93.581C1653.16 71.8405 1688.7 46.0329 1711.04 31.347C1740.86 11.8255 1767.85 2.06485 1791.99 2.06485C1818.98 2.06485 1841.34 10.2283 1859.1 26.5553C1874.37 40.7527 1882 59.0319 1882 81.3928C1882 101.979 1874.37 122.565 1859.1 143.151L1807.35 209.719C1824.07 226.472 1843.99 248.677 1853.77 264.539C1868.33 288.32 1875.61 313.52 1875.61 340.14C1875.61 368.18 1869.04 389.653 1855.9 404.561C1843.12 419.113 1823.24 426.389 1796.25 426.389C1766.43 426.389 1738.02 417.161 1711.03 398.704C1686.18 378.473 1660.88 357.613 1636.38 337.382C1629.33 346.448 1622.07 356.773 1617.83 364.631Z" fill="#FF4C94" fill-opacity="0.07"/>
<path d="M332.335 650.349V650.582M824.474 1.99902C762.001 0.401806 665.227 27.5543 678.009 210.168M824.474 1.99902C940.921 6.79064 949.102 140.555 949.102 214.428C949.102 351.545 830.215 428.985 702.508 428.985C628.611 428.985 542.868 403.239 495.702 342.553C427.818 255.534 411.061 25.5573 557.641 11.0498C665.226 0.401804 690.9 87.7495 690.9 87.7495C718.29 14.263 780.053 0.863325 824.474 1.99902ZM279.333 668.084C296.333 663.586 314.65 657.929 332.335 650.582M1790.8 639.766C1808.2 655.384 1823.47 673.84 1836.61 695.136C1851.17 718.917 1858.44 744.117 1858.44 770.737C1858.44 821.437 1818.18 852.449 1779.09 856.986C1695.09 866.736 1645.32 819.352 1593.15 776.269M1625.39 536.065C1604.51 485.112 1562.58 437.986 1504.8 437.986C1465.39 437.986 1435.92 459.637 1416.39 502.939C1400.76 537.368 1392.95 580.492 1392.95 632.313C1392.95 701.88 1403.78 756.895 1425.44 797.357C1445.68 835.335 1474.26 854.324 1511.19 854.324C1584.83 854.324 1616.03 796.027 1616.03 796.027M1617.74 519.427C1642.59 496.002 1666.88 479.691 1693.87 461.944C1723.69 442.423 1750.68 432.662 1774.82 432.662C1801.81 432.662 1824.18 440.826 1841.93 457.153C1857.2 471.35 1864.83 489.629 1864.83 511.99C1864.83 532.576 1857.2 553.162 1841.93 573.749C1824.89 595.754 1791.19 638.841 1774.15 660.847M1655.56 316.557C1653.78 316.557 1645.25 325.973 1636.38 337.382M1627.48 93.581C1620.23 73.3888 1605.05 46.6412 1588 33.4764C1564.93 16.0846 1542.91 7.38873 1521.96 7.38873C1482.55 7.38873 1453.08 29.0397 1433.55 72.3418C1417.93 106.77 1410.12 149.895 1410.12 201.715C1410.12 271.283 1420.95 326.298 1442.6 366.76C1462.84 404.738 1491.43 423.727 1528.35 423.727C1543.62 423.727 1557.47 420.533 1569.9 414.144C1577 410.24 1584.45 404.738 1592.27 397.639C1602.56 388.411 1611.08 377.408 1617.83 364.631C1622.07 356.773 1629.33 346.448 1636.38 337.382M1627.48 93.581C1622.12 98.112 1617.2 102.466 1612.91 106.507M1627.48 93.581C1653.16 71.8405 1688.7 46.0329 1711.04 31.347C1740.86 11.8255 1767.85 2.06485 1791.99 2.06485C1818.98 2.06485 1841.34 10.2283 1859.1 26.5553C1874.37 40.7527 1882 59.0319 1882 81.3928C1882 101.979 1874.37 122.565 1859.1 143.151L1807.35 209.719M1791.83 194.895C1796.27 198.88 1801.62 203.979 1807.35 209.719M1636.38 337.382C1660.88 357.613 1686.18 378.473 1711.03 398.704C1738.02 417.161 1766.43 426.389 1796.25 426.389C1823.24 426.389 1843.12 419.113 1855.9 404.561C1869.04 389.653 1875.61 368.18 1875.61 340.14C1875.61 313.52 1868.33 288.32 1853.77 264.539C1843.99 248.677 1824.07 226.472 1807.35 209.719M323.023 214.493C358.217 214.493 390.705 203.862 407.058 187.224C423.41 170.587 427.777 137.991 423.41 111.74C416.42 69.7215 397.845 46.964 346.716 26.0229C306.238 9.34096 263.098 1 217.294 1C161.549 1 111.662 12.1804 67.6337 34.5413C35.9194 50.6482 5.75228 74.2717 1.59135 111.207C-4.78988 167.858 41.1202 226.089 105.981 223.012M337.587 213.883C337.587 213.883 341.523 219.46 341.523 249.615C341.523 279.771 323.281 344.399 305.173 374.214C284.579 407.933 257.239 424.792 223.153 424.792C189.421 424.792 162.614 408.288 142.73 375.279C127.107 349.013 116.455 314.052 110.774 270.395C106.297 241.304 105.654 212.654 110.775 183.456M762.001 751.313C714.151 767.951 673.582 768.991 643.639 758.592M731.835 760.672C742.237 797.067 768.28 829.267 801.53 843.86C816.088 849.894 837.611 851.662 850.038 851.662C875.603 851.662 895.842 842.434 910.755 823.977C925.668 805.521 933.124 780.853 933.124 749.974C933.124 722.999 924.247 689.102 906.494 648.285C891.226 612.791 874.183 582.089 855.364 556.179C821.633 510.393 794.293 479.691 773.344 464.074C747.424 444.907 716.001 435.324 679.074 435.324C648.893 435.324 621.731 442.6 597.586 457.153C578.413 468.51 560.837 485.015 544.859 506.666C537.048 517.314 525.331 535.948 509.708 562.568C492.309 591.318 478.107 621.665 467.1 653.609C454.672 689.102 448.459 719.627 448.459 745.182C448.459 777.836 456.093 804.456 471.36 825.042C486.983 845.274 507.045 855.389 531.544 855.389C549.653 855.389 567.406 849.888 584.804 838.885C602.557 827.527 616.76 812.087 627.412 792.566C635.579 777.304 640.294 775.529 653.509 724.277M1318.3 621.332C1376.55 569.34 1347.52 507.021 1326.21 487.499C1311.3 474.012 1294.26 462.832 1275.08 453.958C1258.75 446.505 1237.27 440.648 1210.64 436.389C1184.01 432.13 1161.99 430 1144.6 430C1094.18 430 1050.68 444.197 1014.11 472.592C975.051 503.117 955.522 541.272 955.522 587.059C955.522 602.676 959.783 619.003 968.305 636.04C978.245 655.913 991.582 670.131 1009.44 679.275M1318.3 621.332C1312.93 617.737 1307.22 614.654 1301.18 612.081C1285.56 605.338 1259.28 598.949 1222.35 592.915M1318.3 621.332C1329.98 629.144 1340.07 639.371 1348.58 652.012C1361.01 670.113 1367.22 689.99 1367.22 711.641C1367.22 749.619 1351.24 782.273 1319.29 809.603C1283.43 840.127 1235.49 855.389 1175.49 855.389C1155.96 855.389 1135.9 853.615 1115.3 850.065C1078.69 843.002 1033.05 831.51 1004.38 806.425C975.75 786.226 962.753 737.154 982.531 706.599C993.973 688.922 1009.44 679.275 1009.44 679.275M1080.31 693.081C1047.29 690.952 1030.97 688.215 1019.97 683.956C1016.52 682.664 1012.64 680.91 1009.44 679.275M1318.53 192.814C1376.78 140.822 1347.52 78.5033 1326.21 58.9819C1311.3 45.4944 1294.26 34.3139 1275.08 25.4406C1258.75 17.9869 1237.27 12.1305 1210.64 7.87128C1184.01 3.61205 1161.99 1.48245 1144.6 1.48245C1094.18 1.48245 1050.68 15.6798 1014.11 44.0746C975.051 74.599 955.522 112.755 955.522 158.541C955.522 174.158 959.783 190.485 968.305 207.522C980.022 230.948 997.243 246.92 1019.97 255.438C1030.97 259.697 1047.29 262.434 1080.31 264.564M1009.58 250.826C1009.58 250.826 993.973 260.405 982.531 278.082C962.753 308.636 975.75 357.709 1004.38 377.907C1033.05 402.992 1078.69 414.485 1115.3 421.548C1135.9 425.097 1155.96 426.872 1175.49 426.872C1235.49 426.872 1283.43 411.61 1319.29 381.085C1351.24 353.755 1367.22 321.101 1367.22 283.123C1367.22 261.472 1361.01 241.596 1348.58 223.494C1336.15 205.038 1320.35 191.727 1301.18 183.564C1285.56 176.82 1259.28 170.431 1222.35 164.397M332.335 650.582V699.862C332.335 740.679 323.281 775.996 305.173 805.81C284.579 839.529 257.239 856.388 223.153 856.388C189.421 856.388 162.614 839.884 142.73 806.875C114.203 758.916 118.097 705.128 103.534 673.932C88.9709 642.737 53.0759 629.407 33.5473 612.016C12.2433 592.849 1.59131 569.778 1.59131 542.803C1.59131 400.011 423.41 384.788 423.41 543.336C423.41 598.46 380.184 630.706 332.335 650.582ZM669.571 604.87C648.076 626.3 668.181 652.07 702.509 632.313C736.836 612.556 691.066 583.44 669.571 604.87Z" stroke="white" stroke-width="2" stroke-linecap="round"/>
</svg>
