<svg width="1883" height="860" viewBox="0 0 1883 860" fill="none" xmlns="http://www.w3.org/2000/svg">
<path d="M690.9 517.764C718.29 444.277 780.053 430.878 824.474 432.014C940.921 436.805 949.102 570.57 949.102 644.442C949.102 781.56 830.215 859 702.508 859C628.611 859 542.868 833.254 495.702 772.567C427.818 685.548 411.061 455.572 557.641 441.064C665.226 430.416 690.9 517.764 690.9 517.764Z" fill="#FF4C94" fill-opacity="0.07"/>
<path d="M332.335 221.582V270.862C332.335 311.68 323.281 346.996 305.173 376.81C284.579 410.529 257.239 427.388 223.153 427.388C189.421 427.388 162.614 410.884 142.73 377.875C114.203 329.916 118.097 276.128 103.534 244.932C88.9708 213.737 53.0759 200.408 33.5472 183.016C12.2433 163.849 1.59127 140.779 1.59127 113.803C1.59127 -28.9894 423.41 -44.2116 423.41 114.336C423.41 169.46 380.184 201.706 332.335 221.582Z" fill="#FF4C94" fill-opacity="0.07"/>
<path d="M1326.21 58.4995C1347.52 78.0208 1376.55 140.34 1318.3 192.332C1329.98 200.144 1340.07 210.371 1348.58 223.012C1361.01 241.113 1367.22 260.99 1367.22 282.641C1367.22 320.619 1351.24 353.273 1319.29 380.603C1283.43 411.127 1235.49 426.389 1175.49 426.389C1155.96 426.389 1135.9 424.615 1115.3 421.065C1078.69 414.002 1033.05 402.51 1004.38 377.425C975.75 357.226 962.753 308.154 982.531 277.6C993.973 259.922 1009.44 250.275 1009.44 250.275C991.582 241.131 978.245 226.913 968.305 207.04C959.783 190.003 955.522 173.676 955.522 158.059C955.522 112.272 975.051 74.1166 1014.11 43.5922C1050.68 15.1974 1094.18 1.00001 1144.6 1.00001C1161.99 1.00001 1184.01 3.12962 1210.64 7.38884C1237.27 11.648 1258.75 17.5045 1275.08 24.9581C1294.26 33.8315 1311.3 45.0119 1326.21 58.4995Z" fill="#FF4C94" fill-opacity="0.07"/>
<path d="M1617.83 794.645C1611.08 807.423 1602.56 818.426 1592.27 827.654C1584.45 834.753 1577 840.254 1569.9 844.158C1557.47 850.547 1543.62 853.742 1528.35 853.742C1491.43 853.742 1462.84 834.753 1442.6 796.775C1420.95 756.312 1410.12 701.297 1410.12 631.73C1410.12 579.91 1417.93 536.785 1433.55 502.356C1453.08 459.054 1482.55 437.403 1521.96 437.403C1542.91 437.403 1564.93 446.099 1588 463.491C1605.05 476.656 1620.23 503.403 1627.48 523.596C1653.16 501.855 1688.7 476.047 1711.04 461.361C1740.86 441.84 1767.85 432.079 1791.99 432.079C1818.98 432.079 1841.34 440.243 1859.1 456.57C1874.37 470.767 1882 489.046 1882 511.407C1882 531.993 1874.37 552.58 1859.1 573.166L1807.35 639.733C1824.07 656.486 1843.99 678.692 1853.77 694.553C1868.33 718.334 1875.61 743.534 1875.61 770.155C1875.61 798.194 1869.04 819.668 1855.9 834.575C1843.12 849.128 1823.24 856.404 1796.25 856.404C1766.43 856.404 1738.02 847.175 1711.03 828.719C1686.18 808.487 1660.88 787.628 1636.38 767.397C1629.33 776.463 1622.07 786.787 1617.83 794.645Z" fill="#FF4C94" fill-opacity="0.07"/>
<path d="M332.335 221.349V221.582M824.474 432.014C762.001 430.416 665.227 457.569 678.009 640.183M824.474 432.014C940.921 436.805 949.102 570.57 949.102 644.442C949.102 781.56 830.215 859 702.508 859C628.611 859 542.868 833.254 495.702 772.567C427.818 685.548 411.061 455.572 557.641 441.064C665.226 430.416 690.9 517.764 690.9 517.764C718.29 444.277 780.053 430.878 824.474 432.014ZM279.333 239.085C296.333 234.586 314.65 228.929 332.335 221.582M1790.8 210.766C1808.2 226.384 1823.47 244.84 1836.61 266.136C1851.17 289.917 1858.44 315.117 1858.44 341.737C1858.44 392.437 1818.18 423.449 1779.09 427.987C1695.09 437.736 1645.32 390.352 1593.15 347.269M1625.39 107.065C1604.51 56.1123 1562.58 8.98603 1504.8 8.98603C1465.39 8.98603 1435.92 30.637 1416.39 73.9391C1400.76 108.368 1392.95 151.492 1392.95 203.313C1392.95 272.88 1403.78 327.895 1425.44 368.357C1445.68 406.335 1474.26 425.324 1511.19 425.324C1584.83 425.324 1616.03 367.027 1616.03 367.027M1617.74 90.4274C1642.59 67.0017 1666.88 50.6909 1693.87 32.9441C1723.69 13.4227 1750.68 3.66201 1774.82 3.66201C1801.81 3.66201 1824.18 11.8255 1841.93 28.1525C1857.2 42.3499 1864.83 60.6291 1864.83 82.9899C1864.83 103.576 1857.2 124.162 1841.93 144.749C1824.89 166.755 1791.19 209.841 1774.15 231.847M1655.56 746.571C1653.78 746.571 1645.25 755.987 1636.38 767.397M1627.48 523.596C1620.23 503.403 1605.05 476.656 1588 463.491C1564.93 446.099 1542.91 437.403 1521.96 437.403C1482.55 437.403 1453.08 459.054 1433.55 502.356C1417.93 536.785 1410.12 579.91 1410.12 631.73C1410.12 701.297 1420.95 756.312 1442.6 796.775C1462.84 834.753 1491.43 853.742 1528.35 853.742C1543.62 853.742 1557.47 850.547 1569.9 844.158C1577 840.254 1584.45 834.753 1592.27 827.654C1602.56 818.426 1611.08 807.423 1617.83 794.645C1622.07 786.787 1629.33 776.463 1636.38 767.397M1627.48 523.596C1622.12 528.127 1617.2 532.481 1612.91 536.521M1627.48 523.596C1653.16 501.855 1688.7 476.047 1711.04 461.361C1740.86 441.84 1767.85 432.079 1791.99 432.079C1818.98 432.079 1841.34 440.243 1859.1 456.57C1874.37 470.767 1882 489.046 1882 511.407C1882 531.993 1874.37 552.58 1859.1 573.166L1807.35 639.733M1791.83 624.909C1796.27 628.894 1801.62 633.994 1807.35 639.733M1636.38 767.397C1660.88 787.628 1686.18 808.487 1711.03 828.719C1738.02 847.175 1766.43 856.404 1796.25 856.404C1823.24 856.404 1843.12 849.128 1855.9 834.575C1869.04 819.668 1875.61 798.194 1875.61 770.155C1875.61 743.534 1868.33 718.334 1853.77 694.553C1843.99 678.692 1824.07 656.486 1807.35 639.733M323.023 644.508C358.217 644.508 390.705 633.876 407.058 617.239C423.41 600.601 427.777 568.005 423.41 541.754C416.42 499.736 397.845 476.979 346.716 456.037C306.238 439.355 263.098 431.015 217.294 431.015C161.549 431.015 111.662 442.195 67.6337 464.556C35.9194 480.663 5.75228 504.286 1.59135 541.222C-4.78988 597.873 41.1202 656.104 105.981 653.026M337.587 643.897C337.587 643.897 341.523 649.474 341.523 679.63C341.523 709.785 323.281 774.414 305.173 804.228C284.579 837.947 257.239 854.807 223.153 854.807C189.421 854.807 162.614 838.302 142.73 805.293C127.107 779.028 116.455 744.067 110.774 700.41C106.297 671.319 105.654 642.669 110.775 613.47M762.001 322.313C714.151 338.951 673.582 339.991 643.639 329.592M731.835 331.672C742.237 368.067 768.28 400.267 801.53 414.86C816.088 420.894 837.611 422.662 850.038 422.662C875.603 422.662 895.842 413.434 910.755 394.978C925.668 376.521 933.124 351.853 933.124 320.974C933.124 293.999 924.247 260.102 906.494 219.285C891.226 183.791 874.183 153.09 855.364 127.179C821.633 81.3927 794.293 50.6909 773.344 35.0737C747.424 15.9073 716.001 6.32402 679.074 6.32402C648.893 6.32402 621.731 13.6002 597.586 28.1525C578.413 39.5104 560.837 56.0149 544.859 77.6659C537.048 88.314 525.33 106.948 509.708 133.568C492.309 162.318 478.107 192.665 467.1 224.609C454.672 260.102 448.459 290.627 448.459 316.182C448.459 348.836 456.093 375.456 471.36 396.042C486.983 416.274 507.045 426.389 531.544 426.389C549.652 426.389 567.406 420.888 584.804 409.885C602.557 398.527 616.76 383.087 627.412 363.566C635.578 348.304 640.294 346.529 653.509 295.277M1318.3 192.332C1376.55 140.34 1347.52 78.0208 1326.21 58.4995C1311.3 45.0119 1294.26 33.8315 1275.08 24.9581C1258.75 17.5045 1237.27 11.648 1210.64 7.38884C1184.01 3.12962 1161.99 1.00001 1144.6 1.00001C1094.18 1.00001 1050.68 15.1974 1014.11 43.5922C975.051 74.1166 955.522 112.272 955.522 158.059C955.522 173.676 959.783 190.003 968.305 207.04C978.245 226.913 991.582 241.131 1009.44 250.275M1318.3 192.332C1312.93 188.737 1307.22 185.654 1301.18 183.082C1285.56 176.338 1259.28 169.949 1222.35 163.915M1318.3 192.332C1329.98 200.144 1340.07 210.371 1348.58 223.012C1361.01 241.113 1367.22 260.99 1367.22 282.641C1367.22 320.619 1351.24 353.273 1319.29 380.603C1283.43 411.127 1235.49 426.389 1175.49 426.389C1155.96 426.389 1135.9 424.615 1115.3 421.065C1078.69 414.002 1033.05 402.51 1004.38 377.425C975.75 357.226 962.753 308.154 982.531 277.6C993.973 259.922 1009.44 250.275 1009.44 250.275M1080.31 264.081C1047.29 261.952 1030.97 259.215 1019.97 254.956C1016.52 253.664 1012.64 251.91 1009.44 250.275M1318.53 622.829C1376.78 570.837 1347.52 508.518 1326.21 488.996C1311.3 475.509 1294.26 464.328 1275.08 455.455C1258.75 448.001 1237.27 442.145 1210.64 437.886C1184.01 433.627 1161.99 431.497 1144.6 431.497C1094.18 431.497 1050.68 445.694 1014.11 474.089C975.051 504.614 955.522 542.769 955.522 588.556C955.522 604.173 959.783 620.5 968.305 637.537C980.022 660.962 997.243 676.934 1019.97 685.453C1030.97 689.712 1047.29 692.449 1080.31 694.579M1009.58 680.841C1009.58 680.841 993.973 690.419 982.531 708.096C962.753 738.651 975.75 787.723 1004.38 807.922C1033.05 833.007 1078.69 844.499 1115.3 851.562C1135.9 855.112 1155.96 856.886 1175.49 856.886C1235.49 856.886 1283.43 841.624 1319.29 811.1C1351.24 783.77 1367.22 751.116 1367.22 713.138C1367.22 691.487 1361.01 671.61 1348.58 653.509C1336.15 635.052 1320.35 621.742 1301.18 613.578C1285.56 606.835 1259.28 600.446 1222.35 594.412M332.335 221.582V270.862C332.335 311.68 323.281 346.996 305.173 376.81C284.579 410.529 257.239 427.388 223.153 427.388C189.421 427.388 162.614 410.884 142.73 377.875C114.203 329.916 118.097 276.128 103.534 244.932C88.9708 213.737 53.0759 200.408 33.5472 183.016C12.2433 163.849 1.59127 140.779 1.59127 113.803C1.59127 -28.9894 423.41 -44.2116 423.41 114.336C423.41 169.46 380.184 201.706 332.335 221.582ZM669.571 175.87C648.076 197.3 668.181 223.07 702.508 203.313C736.836 183.556 691.066 154.44 669.571 175.87Z" stroke="white" stroke-width="2" stroke-linecap="round"/>
</svg>
